<svg width="21" height="24" viewBox="0 0 21 24" fill="none" xmlns="http://www.w3.org/2000/svg">
<path d="M20.6001 10.4175V6.47303C18.7529 6.47303 17.3432 5.97998 16.4334 5.02165C15.4997 3.92793 14.9767 2.54286 14.9543 1.10498V0.820258L11.2251 0.72998V16.7508C11.0972 17.4498 10.7579 18.0927 10.253 18.5928C9.74808 19.0928 9.10192 19.4259 8.40172 19.5471C7.70152 19.6683 6.981 19.5717 6.33742 19.2704C5.69385 18.9691 5.15821 18.4776 4.80282 17.8623C4.44742 17.2469 4.28939 16.5374 4.35005 15.8293C4.41072 15.1213 4.68715 14.449 5.14204 13.903C5.59693 13.3571 6.20837 12.9639 6.89382 12.7765C7.57927 12.589 8.30572 12.6165 8.9751 12.855V9.03553C8.58482 8.97158 8.19003 8.93907 7.79454 8.93831C6.37162 8.93831 4.98065 9.36026 3.79753 10.1508C2.61441 10.9413 1.69228 12.0649 1.14775 13.3796C0.603215 14.6942 0.460741 16.1407 0.73834 17.5363C1.01594 18.9319 1.70114 20.2138 2.7073 21.22C3.71347 22.2262 4.99539 22.9114 6.39098 23.189C7.78656 23.4666 9.23313 23.3241 10.5477 22.7796C11.8624 22.235 12.986 21.3129 13.7765 20.1298C14.567 18.9467 14.989 17.5557 14.989 16.1328C14.9882 15.8379 14.9697 15.5434 14.9334 15.2508V8.89664C16.6291 9.95563 18.602 10.4851 20.6001 10.4175Z" fill="white"/>
</svg>
