<svg width="20" height="22" viewBox="0 0 20 22" fill="none" xmlns="http://www.w3.org/2000/svg">
<g clip-path="url(#clip0_27_2)">
<path d="M18.5638 18.9303L11.8622 8.90177L11.1048 7.76754L6.31078 0.594698L5.91338 0H0.0234375L1.45969 2.15064L7.83399 11.6883L8.59139 12.8215L13.7127 20.489L14.1101 21.0828H20.001L18.5638 18.9303ZM14.8105 19.7083L9.48905 11.7453L8.73165 10.612L2.56026 1.37267H5.21396L10.2062 8.84473L10.9646 9.97803L17.466 19.7083H14.8105Z" fill="white"/>
<path d="M8.73159 10.6118L9.48899 11.7451L8.59133 12.8223L1.69994 21.0798H0L7.83393 11.689L8.73159 10.6118Z" fill="white"/>
<path d="M19.2913 0L11.8623 8.90177L10.9637 9.97803L10.2063 8.84473L11.1049 7.76754L16.1374 1.73454L17.5914 0H19.2913Z" fill="white"/>
</g>
<defs>
<clipPath id="clip0_27_2">
<rect width="20" height="21.08" fill="white"/>
</clipPath>
</defs>
</svg>
